<svg width="40" height="40" viewBox="0 0 40 40" fill="none" xmlns="http://www.w3.org/2000/svg">
<circle cx="20" cy="20" r="20" fill="black"/>
<path d="M28.25 11H27.1337C27.8392 12.3256 28.25 13.8598 28.25 15.5C28.25 20.4627 24.5491 24.5 20 24.5C15.4509 24.5 11.75 20.4627 11.75 15.5C11.75 13.8598 12.1608 12.3256 12.8663 11H11.75C10.2336 11 9 12.3458 9 14V29C9 30.6542 10.2336 32 11.75 32H28.25C29.7664 32 31 30.6542 31 29V14C31 12.3458 29.7664 11 28.25 11ZM20 23C23.7971 23 26.875 19.6423 26.875 15.5C26.875 11.3577 23.7971 8 20 8C16.2029 8 13.125 11.3577 13.125 15.5C13.125 19.6423 16.2029 23 20 23ZM19.9871 15.8778L21.43 12.2047C21.5804 11.8217 21.986 11.6459 22.3336 11.8105C22.6825 11.9736 22.8441 12.4147 22.695 12.7948L21.2482 16.4769C21.5353 16.8125 21.7188 17.2555 21.7188 17.75C21.7188 18.7855 20.9492 19.625 20 19.625C19.0508 19.625 18.2812 18.7855 18.2812 17.75C18.2812 16.7197 19.0444 15.8858 19.9871 15.8778Z" fill="#FAFF00"/>
</svg>